<?xml version="1.0" encoding="UTF-8"?>
<!DOCTYPE svg PUBLIC "-//W3C//DTD SVG 1.1//EN" "http://www.w3.org/Graphics/SVG/1.1/DTD/svg11.dtd">
<!-- Creator: CorelDRAW X8 -->
<svg xmlns="http://www.w3.org/2000/svg" xml:space="preserve" width="25.3998mm" height="39.2852mm" version="1.1" style="shape-rendering:geometricPrecision; text-rendering:geometricPrecision; image-rendering:optimizeQuality; fill-rule:evenodd; clip-rule:evenodd"
viewBox="0 0 2540 3929"
 xmlns:xlink="http://www.w3.org/1999/xlink">
 <defs>
  <style type="text/css">
   <![CDATA[
    .str0 {stroke:#FEFEFE;stroke-width:7.62}
    .fil7 {fill:none}
    .fil1 {fill:#FEFEFE}
    .fil2 {fill:#794233}
    .fil4 {fill:#7A4C49}
    .fil6 {fill:#D2AE6D}
    .fil3 {fill:#E94235}
    .fil5 {fill:#FF5F54}
    .fil0 {fill:#FEFEFE;fill-rule:nonzero}
    .test {
      animation: test 1s infinite;
    }
    @keyframes test {
      0% {
        transform: translate(0,-100px);
      }
      50% {
        transform: translate(0,0);
      }
      100% {
        transform: translate(0,-100px);
      }
    }
   ]]>
  </style>
   <clipPath id="id0">
    <rect width="2540" height="3929"/>
   </clipPath>
   <clipPath id="id1">
    <path d="M204 1135c0,391 202,683 390,995 184,306 161,258 330,609 90,186 180,514 217,722 11,66 24,144 30,208 19,232 179,232 198,0 6,-64 19,-142 30,-208 37,-208 127,-536 217,-722 169,-351 146,-303 330,-609 188,-312 390,-604 390,-995 0,-308 -136,-563 -294,-719 -100,-99 -164,-150 -287,-220 -262,-148 -712,-147 -970,0 -123,70 -187,121 -287,220 -158,156 -294,411 -294,719z"/>
   </clipPath>
 </defs>
 <g id="Слой_x0020_1" class="test">
  <metadata id="CorelCorpID_0Corel-Layer"/>
  <g style="clip-path:url(#id0)">

  </g>
  <path class="fil0 str0" d="M521 1421l28 0c16,0 27,1 32,2 9,2 15,6 21,12 5,7 8,14 8,24 0,7 -2,14 -6,20 -3,6 -9,10 -15,13 -7,3 -16,5 -28,5l51 66 -18 0 -51 -66 -8 0 0 66 -14 0 0 -142zm14 14l0 48 25 0c9,0 16,-1 21,-3 4,-1 8,-4 10,-8 3,-4 4,-9 4,-13 0,-5 -1,-10 -4,-13 -2,-4 -6,-7 -10,-9 -4,-1 -11,-2 -21,-2l-25 0zm170 -14l80 0 0 14 -66 0 0 44 66 0 0 14 -66 0 0 56 66 0 0 14 -80 0 0 -142zm155 115l12 -7c8,16 18,23 29,23 5,0 9,-1 14,-3 4,-2 7,-5 9,-9 2,-4 3,-8 3,-12 0,-4 -1,-9 -4,-14 -5,-6 -13,-14 -25,-22 -11,-9 -19,-16 -22,-20 -5,-6 -7,-14 -7,-21 0,-7 1,-12 4,-17 3,-5 7,-9 13,-12 5,-3 11,-5 17,-5 7,0 13,2 19,5 6,4 12,10 18,19l-11 8c-6,-7 -10,-11 -14,-14 -4,-2 -8,-3 -12,-3 -6,0 -11,2 -14,5 -4,4 -6,8 -6,13 0,3 1,6 2,9 2,3 4,6 7,9 2,2 8,7 19,15 12,9 20,17 25,24 4,7 7,14 7,21 0,10 -4,19 -12,27 -8,7 -17,11 -28,11 -9,0 -17,-2 -24,-7 -7,-4 -13,-12 -19,-23zm175 -115l14 0 0 142 -14 0 0 -142zm111 142l0 -142 30 0c21,0 36,2 46,5 13,5 24,13 32,25 7,12 11,26 11,43 0,14 -3,26 -9,37 -6,11 -14,19 -24,24 -10,5 -23,8 -41,8l-45 0zm14 -14l16 0c20,0 33,-1 41,-3 10,-4 19,-10 25,-19 6,-9 9,-20 9,-33 0,-14 -4,-26 -10,-35 -7,-10 -16,-17 -28,-20 -8,-3 -23,-4 -43,-4l-10 0 0 114zm198 -128l80 0 0 14 -66 0 0 44 66 0 0 14 -66 0 0 56 66 0 0 14 -80 0 0 -142zm170 142l0 -142 3 0 93 108 0 -108 15 0 0 142 -4 0 -93 -108 0 108 -14 0zm341 -116l-11 9c-6,-8 -14,-14 -22,-19 -9,-4 -18,-6 -29,-6 -11,0 -21,3 -31,8 -9,6 -17,13 -22,22 -5,9 -8,20 -8,31 0,17 6,32 18,43 11,12 26,18 44,18 20,0 37,-8 50,-24l11 9c-7,9 -16,16 -26,21 -11,5 -23,7 -36,7 -24,0 -44,-8 -58,-25 -12,-14 -18,-30 -18,-50 0,-21 7,-38 22,-52 14,-14 32,-22 54,-22 13,0 25,3 36,8 11,5 19,13 26,22zm93 -26l81 0 0 14 -67 0 0 44 66 0 0 14 -66 0 0 56 66 0 0 14 -80 0 0 -142z"/>
  <path class="fil0 str0" d="M751 1087c0,16 -3,30 -8,44 -5,13 -13,24 -23,34 -12,12 -26,21 -43,27 -16,6 -37,10 -62,10l-47 0 0 131 -47 0 0 -352 96 0c21,0 38,2 53,5 15,4 28,9 39,17 13,9 24,20 31,33 7,14 11,31 11,51zm-49 1c0,-12 -2,-22 -6,-31 -4,-9 -11,-16 -19,-22 -8,-5 -17,-8 -26,-10 -10,-3 -22,-4 -37,-4l-46 0 0 140 39 0c19,0 35,-2 46,-5 12,-4 22,-9 29,-16 7,-8 13,-16 16,-24 3,-8 4,-17 4,-28zm472 245l-50 0 -34 -98 -153 0 -34 98 -47 0 128 -352 62 0 128 352zm-99 -139l-61 -172 -62 172 123 0zm540 139l-61 0 -118 -140 -66 0 0 140 -47 0 0 -352 99 0c21,0 39,1 53,4 14,3 27,8 38,15 13,8 23,18 30,30 8,12 11,28 11,46 0,26 -6,47 -19,64 -13,17 -30,30 -53,39l133 154zm-110 -253c0,-10 -2,-19 -5,-27 -4,-7 -10,-14 -18,-19 -6,-5 -15,-8 -24,-10 -9,-2 -20,-3 -33,-3l-55 0 0 133 47 0c15,0 28,-2 39,-4 11,-3 21,-8 28,-15 8,-6 13,-14 16,-22 4,-9 5,-20 5,-33zm533 253l-61 0 -138 -157 -36 37 0 120 -47 0 0 -352 47 0 0 183 171 -183 57 0 -157 165 164 187z"/>
  <path class="fil1 str0" d="M1293 880l-75 0 31 -171 12 0c4,9 30,151 32,171z"/>
  <path class="fil1 str0" d="M1274 507c-20,-29 -13,-66 12,-81 23,27 13,71 -12,81zm-227 57c-12,8 -27,10 -42,5 -12,-3 -26,-14 -29,-23 27,-21 60,4 71,18zm207 -140c-4,-41 6,-54 38,-66 10,35 -9,59 -38,66zm-178 194c-9,8 -29,8 -41,3 -13,-4 -25,-15 -29,-24 31,-12 59,1 70,21zm476 -34c-5,20 -40,40 -65,23 8,-20 39,-40 65,-23zm-358 99c-11,7 -26,9 -41,5 -12,-4 -26,-14 -30,-24 28,-21 60,5 71,19zm54 -22c-29,1 -56,-4 -62,-40 15,-1 30,-1 41,8 10,7 17,18 21,32zm234 0c-34,10 -61,0 -72,-24 29,-13 63,-1 72,24zm-265 -62c-28,3 -44,-7 -55,-31 -2,-6 -3,-7 0,-9 14,-13 63,18 55,40zm114 -15c-24,-10 -33,-36 -26,-60l4 -9c0,-1 0,-1 1,-2 26,13 33,39 21,71zm-191 -64c-12,-3 -24,-13 -29,-22 -7,-14 -5,-27 -2,-44 35,8 41,50 31,66zm19 114c-34,4 -61,-15 -66,-42 19,-1 30,0 44,9 8,5 22,20 22,33zm185 -25c1,-23 27,-47 65,-42 -10,35 -34,44 -65,42zm86 137c-28,-5 -50,-28 -49,-62 29,5 52,28 49,62zm-260 32c-11,-29 1,-64 26,-73 7,13 7,30 1,45 -5,12 -14,26 -27,28zm95 -184c-9,-4 -20,-17 -23,-30 -4,-18 3,-30 8,-44 26,13 32,45 15,74zm280 140c-33,5 -66,-14 -68,-41 37,-3 60,12 68,41zm-440 -63c-24,21 -55,11 -78,-10 26,-25 71,-5 78,10zm479 -20c-16,22 -67,25 -80,0 13,-5 19,-13 39,-14 21,-1 29,7 41,14zm-315 23c-4,-40 6,-54 38,-66 10,35 -9,60 -38,66zm-119 38c-7,21 -42,44 -74,27 3,-11 16,-22 27,-27 17,-6 31,-3 47,0zm219 -173c4,-33 22,-50 58,-51 -3,33 -23,53 -58,51zm-12 230c-30,-4 -55,-25 -54,-59 31,4 56,26 54,59zm-148 -232c-14,1 -28,-12 -32,-20 -9,-14 -9,-27 -7,-45 31,3 44,32 39,65zm177 102c-3,15 -12,27 -21,34 -13,11 -25,11 -43,9 5,-29 29,-50 64,-43zm-250 -78c-28,20 -72,0 -79,-22 22,-6 48,-15 72,13 5,5 4,3 7,9zm294 42c-2,-36 16,-61 48,-66 1,35 -16,63 -48,66zm-95 -105c-4,-18 -9,-29 1,-47 5,-11 18,-24 31,-26 12,35 -5,65 -32,73zm-103 -24c-25,-7 -48,-41 -30,-74 11,2 24,15 29,25 7,15 5,33 1,49z"/>
  <path class="fil2" d="M204 1135c0,391 202,683 390,995 184,306 161,258 330,609 90,186 180,514 217,722 11,66 24,144 30,208 19,232 179,232 198,0 6,-64 19,-142 30,-208 37,-208 127,-536 217,-722 169,-351 146,-303 330,-609 188,-312 390,-604 390,-995 0,-308 -136,-563 -294,-719 -100,-99 -164,-150 -287,-220 -262,-148 -712,-147 -970,0 -123,70 -187,121 -287,220 -158,156 -294,411 -294,719z"/>
  <g style="clip-path:url(#id1)">
   <g id="_2532925973152">
    <path id="1" class="fil2" d="M2306 1740c-24,-10 -50,-20 -76,-27 -225,244 -495,446 -784,565 -288,119 -553,138 -766,74 -35,39 -69,78 -102,119l649 1639 70 62 70 -62 939 -2370z"/>
    <path class="fil3" d="M2268 1838c-35,-16 -71,-29 -109,-39 -200,234 -444,429 -707,549 -263,119 -507,146 -706,93 -42,49 -82,100 -120,152l601 1517 70 62 70 -62 901 -2272z"/>
    <path class="fil4" d="M2326 1691c-36,-6 -74,-7 -115,-3 -196,302 -432,581 -684,791 -251,211 -481,321 -667,338 -30,47 -60,95 -88,143l455 1150 70 62 70 -62 959 -2419z"/>
    <path class="fil5" d="M2314 1720c-36,-4 -76,-4 -117,1 -184,310 -410,598 -653,817 -244,220 -469,339 -654,363 -29,48 -57,97 -83,147l420 1062 70 62 70 -62 947 -2390z"/>
    <circle class="fil2" cx="1274" cy="1152" r="1067"/>
    <path class="fil6" d="M1274 66c600,0 1087,486 1087,1086 0,600 -487,1087 -1087,1087 -600,0 -1086,-487 -1086,-1087 0,-600 486,-1086 1086,-1086zm0 95c548,0 992,444 992,991 0,548 -444,992 -992,992 -547,0 -991,-444 -991,-992 0,-547 444,-991 991,-991z"/>
    <path class="fil4" d="M2243 1899c-48,-4 -100,0 -155,14 -147,329 -336,642 -552,889 -215,247 -425,392 -605,438 -9,19 -17,38 -26,57l322 813 70 62 70 -62 876 -2211z"/>
   </g>
  </g>
  <path class="fil7" d="M204 1135c0,391 202,683 390,995 184,306 161,258 330,609 90,186 180,514 217,722 11,66 24,144 30,208 19,232 179,232 198,0 6,-64 19,-142 30,-208 37,-208 127,-536 217,-722 169,-351 146,-303 330,-609 188,-312 390,-604 390,-995 0,-308 -136,-563 -294,-719 -100,-99 -164,-150 -287,-220 -262,-148 -712,-147 -970,0 -123,70 -187,121 -287,220 -158,156 -294,411 -294,719z"/>
  <path class="fil0 str0" d="M521 1421l28 0c16,0 27,1 32,2 9,2 15,6 21,12 5,7 8,14 8,24 0,7 -2,14 -6,20 -3,6 -9,10 -15,13 -7,3 -16,5 -28,5l51 66 -18 0 -51 -66 -8 0 0 66 -14 0 0 -142zm14 14l0 48 25 0c9,0 16,-1 21,-3 4,-1 8,-4 10,-8 3,-4 4,-9 4,-13 0,-5 -1,-10 -4,-13 -2,-4 -6,-7 -10,-9 -4,-1 -11,-2 -21,-2l-25 0zm170 -14l80 0 0 14 -66 0 0 44 66 0 0 14 -66 0 0 56 66 0 0 14 -80 0 0 -142zm155 115l12 -7c8,16 18,23 29,23 5,0 9,-1 14,-3 4,-2 7,-5 9,-9 2,-4 3,-8 3,-12 0,-4 -1,-9 -4,-14 -5,-6 -13,-14 -25,-22 -11,-9 -19,-16 -22,-20 -5,-6 -7,-14 -7,-21 0,-7 1,-12 4,-17 3,-5 7,-9 13,-12 5,-3 11,-5 17,-5 7,0 13,2 19,5 6,4 12,10 18,19l-11 8c-6,-7 -10,-11 -14,-14 -4,-2 -8,-3 -12,-3 -6,0 -11,2 -14,5 -4,4 -6,8 -6,13 0,3 1,6 2,9 2,3 4,6 7,9 2,2 8,7 19,15 12,9 20,17 25,24 4,7 7,14 7,21 0,10 -4,19 -12,27 -8,7 -17,11 -28,11 -9,0 -17,-2 -24,-7 -7,-4 -13,-12 -19,-23zm175 -115l14 0 0 142 -14 0 0 -142zm111 142l0 -142 30 0c21,0 36,2 46,5 13,5 24,13 32,25 7,12 11,26 11,43 0,14 -3,26 -9,37 -6,11 -14,19 -24,24 -10,5 -23,8 -41,8l-45 0zm14 -14l16 0c20,0 33,-1 41,-3 10,-4 19,-10 25,-19 6,-9 9,-20 9,-33 0,-14 -4,-26 -10,-35 -7,-10 -16,-17 -28,-20 -8,-3 -23,-4 -43,-4l-10 0 0 114zm198 -128l80 0 0 14 -66 0 0 44 66 0 0 14 -66 0 0 56 66 0 0 14 -80 0 0 -142zm170 142l0 -142 3 0 93 108 0 -108 15 0 0 142 -4 0 -93 -108 0 108 -14 0zm341 -116l-11 9c-6,-8 -14,-14 -22,-19 -9,-4 -18,-6 -29,-6 -11,0 -21,3 -31,8 -9,6 -17,13 -22,22 -5,9 -8,20 -8,31 0,17 6,32 18,43 11,12 26,18 44,18 20,0 37,-8 50,-24l11 9c-7,9 -16,16 -26,21 -11,5 -23,7 -36,7 -24,0 -44,-8 -58,-25 -12,-14 -18,-30 -18,-50 0,-21 7,-38 22,-52 14,-14 32,-22 54,-22 13,0 25,3 36,8 11,5 19,13 26,22zm93 -26l81 0 0 14 -67 0 0 44 66 0 0 14 -66 0 0 56 66 0 0 14 -80 0 0 -142z"/>
  <path class="fil0 str0" d="M751 1087c0,16 -3,30 -8,44 -5,13 -13,24 -23,34 -12,12 -26,21 -43,27 -16,6 -37,10 -62,10l-47 0 0 131 -47 0 0 -352 96 0c21,0 38,2 53,5 15,4 28,9 39,17 13,9 24,20 31,33 7,14 11,31 11,51zm-49 1c0,-12 -2,-22 -6,-31 -4,-9 -11,-16 -19,-22 -8,-5 -17,-8 -26,-10 -10,-3 -22,-4 -37,-4l-46 0 0 140 39 0c19,0 35,-2 46,-5 12,-4 22,-9 29,-16 7,-8 13,-16 16,-24 3,-8 4,-17 4,-28zm472 245l-50 0 -34 -98 -153 0 -34 98 -47 0 128 -352 62 0 128 352zm-99 -139l-61 -172 -62 172 123 0zm540 139l-61 0 -118 -140 -66 0 0 140 -47 0 0 -352 99 0c21,0 39,1 53,4 14,3 27,8 38,15 13,8 23,18 30,30 8,12 11,28 11,46 0,26 -6,47 -19,64 -13,17 -30,30 -53,39l133 154zm-110 -253c0,-10 -2,-19 -5,-27 -4,-7 -10,-14 -18,-19 -6,-5 -15,-8 -24,-10 -9,-2 -20,-3 -33,-3l-55 0 0 133 47 0c15,0 28,-2 39,-4 11,-3 21,-8 28,-15 8,-6 13,-14 16,-22 4,-9 5,-20 5,-33zm533 253l-61 0 -138 -157 -36 37 0 120 -47 0 0 -352 47 0 0 183 171 -183 57 0 -157 165 164 187z"/>
  <path class="fil1 str0" d="M1293 880l-75 0 31 -171 12 0c4,9 30,151 32,171z"/>
  <path class="fil1 str0" d="M1274 507c-20,-29 -13,-66 12,-81 23,27 13,71 -12,81zm-227 57c-12,8 -27,10 -42,5 -12,-3 -26,-14 -29,-23 27,-21 60,4 71,18zm207 -140c-4,-41 6,-54 38,-66 10,35 -9,59 -38,66zm-178 194c-9,8 -29,8 -41,3 -13,-4 -25,-15 -29,-24 31,-12 59,1 70,21zm476 -34c-5,20 -40,40 -65,23 8,-20 39,-40 65,-23zm-358 99c-11,7 -26,9 -41,5 -12,-4 -26,-14 -30,-24 28,-21 60,5 71,19zm54 -22c-29,1 -56,-4 -62,-40 15,-1 30,-1 41,8 10,7 17,18 21,32zm234 0c-34,10 -61,0 -72,-24 29,-13 63,-1 72,24zm-265 -62c-28,3 -44,-7 -55,-31 -2,-6 -3,-7 0,-9 14,-13 63,18 55,40zm114 -15c-24,-10 -33,-36 -26,-60l4 -9c0,-1 0,-1 1,-2 26,13 33,39 21,71zm-191 -64c-12,-3 -24,-13 -29,-22 -7,-14 -5,-27 -2,-44 35,8 41,50 31,66zm19 114c-34,4 -61,-15 -66,-42 19,-1 30,0 44,9 8,5 22,20 22,33zm185 -25c1,-23 27,-47 65,-42 -10,35 -34,44 -65,42zm86 137c-28,-5 -50,-28 -49,-62 29,5 52,28 49,62zm-260 32c-11,-29 1,-64 26,-73 7,13 7,30 1,45 -5,12 -14,26 -27,28zm95 -184c-9,-4 -20,-17 -23,-30 -4,-18 3,-30 8,-44 26,13 32,45 15,74zm280 140c-33,5 -66,-14 -68,-41 37,-3 60,12 68,41zm-440 -63c-24,21 -55,11 -78,-10 26,-25 71,-5 78,10zm479 -20c-16,22 -67,25 -80,0 13,-5 19,-13 39,-14 21,-1 29,7 41,14zm-315 23c-4,-40 6,-54 38,-66 10,35 -9,60 -38,66zm-119 38c-7,21 -42,44 -74,27 3,-11 16,-22 27,-27 17,-6 31,-3 47,0zm219 -173c4,-33 22,-50 58,-51 -3,33 -23,53 -58,51zm-12 230c-30,-4 -55,-25 -54,-59 31,4 56,26 54,59zm-148 -232c-14,1 -28,-12 -32,-20 -9,-14 -9,-27 -7,-45 31,3 44,32 39,65zm177 102c-3,15 -12,27 -21,34 -13,11 -25,11 -43,9 5,-29 29,-50 64,-43zm-250 -78c-28,20 -72,0 -79,-22 22,-6 48,-15 72,13 5,5 4,3 7,9zm294 42c-2,-36 16,-61 48,-66 1,35 -16,63 -48,66zm-95 -105c-4,-18 -9,-29 1,-47 5,-11 18,-24 31,-26 12,35 -5,65 -32,73zm-103 -24c-25,-7 -48,-41 -30,-74 11,2 24,15 29,25 7,15 5,33 1,49z"/>
 </g>
</svg>
