<?xml version="1.0" encoding="UTF-8"?>
<!DOCTYPE svg PUBLIC "-//W3C//DTD SVG 1.1//EN" "http://www.w3.org/Graphics/SVG/1.1/DTD/svg11.dtd">
<!-- Creator: CorelDRAW X8 -->
<svg xmlns="http://www.w3.org/2000/svg" xml:space="preserve" width="21.637mm" height="20.4868mm" version="1.1" style="shape-rendering:geometricPrecision; text-rendering:geometricPrecision; image-rendering:optimizeQuality; fill-rule:evenodd; clip-rule:evenodd"
viewBox="0 0 2164 2049"
 xmlns:xlink="http://www.w3.org/1999/xlink">
 <defs>
  <style type="text/css">
   <![CDATA[
    .str0 {stroke:#373435;stroke-width:20}
    .fil3 {fill:none}
    .fil2 {fill:#DE3E32;}
    .fil0 {fill:#333333;fill-rule:nonzero}
    .fil2 {
      animation: test 1s infinite;
    }
    @keyframes test {
      0% {
        transform: translate(0,-70px);
      }
      50% {
        transform: translate(0,0);
      }
      100% {
        transform: translate(0,-70px);
      }
    }
   ]]>
  </style>
   <clipPath id="id0">
    <path d="M1090 798c-42,-1 -85,4 -125,15 -263,71 -393,351 -255,617 87,168 208,351 311,515 16,25 36,70 69,70 33,0 53,-45 69,-70 103,-164 224,-347 311,-515 138,-266 8,-546 -255,-617 -40,-11 -83,-16 -125,-15zm0 228c109,0 197,89 197,197 0,109 -88,198 -197,198 -109,0 -197,-89 -197,-198 0,-108 88,-197 197,-197z"/>
   </clipPath>
 </defs>
 <g id="Слой_x0020_1" class="test">
  <metadata id="CorelCorpID_0Corel-Layer"/>
  <polygon class="fil0" points="543,280 543,29 512,29 512,139 457,139 457,29 426,29 426,280 457,280 457,167 512,167 512,280 "/>
  <path id="1" class="fil0" d="M713 280l-58 -251 -29 0 -59 251 32 0 12 -59 58 0 12 59 32 0zm-50 -86l-47 0 24 -116 23 116z"/>
  <path id="2" class="fil0" d="M847 213c0,-26 -3,-37 -11,-46 -4,-6 -10,-10 -17,-14 7,-3 12,-8 16,-14 8,-10 11,-19 11,-43 0,-23 -2,-40 -15,-54 -10,-10 -25,-16 -43,-16 -18,0 -31,6 -41,16 -11,11 -17,28 -17,49l30 0c0,-11 3,-23 9,-30 4,-4 10,-7 19,-7 9,0 15,2 20,7 7,9 8,19 8,36 0,22 -3,30 -9,37 -5,5 -11,7 -18,7l-21 0 0 26 21 0c7,0 13,2 18,7 7,7 10,16 10,38 0,17 -2,28 -9,36 -5,5 -11,8 -20,8 -9,0 -15,-3 -19,-8 -6,-7 -9,-18 -9,-30l-30 0c0,22 6,40 18,52 9,9 23,13 40,13 19,0 33,-5 43,-16 13,-14 16,-29 16,-54z"/>
  <path id="3" class="fil0" d="M1015 280l-59 -251 -29 0 -58 251 31 0 12 -59 59 0 12 59 32 0zm-50 -86l-47 0 24 -116 23 116z"/>
  <path id="4" class="fil0" d="M1155 103c0,-56 -21,-74 -60,-74l-56 0 0 251 30 0 0 -104 26 0c38,0 60,-18 60,-73zm-30 0c0,33 -10,46 -31,46l-25 0 0 -93 25 0c21,0 31,13 31,47z"/>
  <path id="5" class="fil0" d="M1308 207c0,-56 -22,-74 -60,-74l-27 0 0 -77 76 0 0 -27 -106 0 0 251 57 0c38,0 60,-18 60,-73zm-30 0c0,34 -11,46 -30,46l-27 0 0 -92 27 0c19,0 30,12 30,46z"/>
  <path id="6" class="fil0" d="M1471 280l-58 -251 -30 0 -58 251 32 0 12 -59 58 0 12 59 32 0zm-50 -86l-47 0 24 -116 23 116z"/>
  <polygon id="7" class="fil0" points="1592,280 1592,253 1526,253 1526,168 1583,168 1583,141 1526,141 1526,56 1592,56 1592,29 1495,29 1495,280 "/>
  <path id="8" class="fil0" d="M1746 210c0,-22 -2,-39 -15,-51 -5,-4 -10,-8 -16,-9 5,-3 10,-6 14,-10 12,-12 15,-27 15,-45 0,-27 -4,-39 -15,-51 -10,-10 -24,-15 -46,-15l-54 0 0 251 54 0c22,0 36,-4 46,-15 12,-11 17,-25 17,-55zm-31 -2c0,35 -11,45 -34,45l-21 0 0 -90 21 0c23,0 34,13 34,45zm-1 -111c0,28 -11,40 -32,40l-22 0 0 -81 22 0c22,0 32,10 32,41z"/>
  <polygon id="9" class="fil0" points="144,613 144,362 116,362 54,537 54,362 24,362 24,613 52,613 114,439 114,613 "/>
  <polygon id="10" class="fil0" points="306,613 306,362 275,362 275,472 220,472 220,362 189,362 189,613 220,613 220,499 275,499 275,613 "/>
  <polygon id="11" class="fil0" points="450,389 450,362 336,362 336,389 378,389 378,613 408,613 408,389 "/>
  <polygon id="12" class="fil0" points="577,613 577,586 511,586 511,501 568,501 568,473 511,473 511,389 577,389 577,362 480,362 480,613 "/>
  <path id="13" class="fil0" d="M740 613l0 -251 -105 0 0 134c0,85 -17,90 -35,90l-3 0 0 27 8 0c32,0 59,-10 59,-113l0 -111 45 0 0 224 31 0z"/>
  <polygon id="14" class="fil0" points="882,613 882,586 815,586 815,501 873,501 873,473 815,473 815,389 882,389 882,362 785,362 785,613 "/>
  <path id="15" class="fil0" d="M949 613l0 -251 -30 0 0 251 30 0zm103 0l-71 -132 65 -119 -33 0 -63 120 68 131 34 0z"/>
  <polygon id="16" class="fil0" points="1177,389 1177,362 1062,362 1062,389 1105,389 1105,613 1135,613 1135,389 "/>
  <polygon id="17" class="fil0" points="1224,613 1224,578 1189,578 1189,613 "/>
  <polygon id="18" class="fil0" points="1526,613 1526,362 1496,362 1496,586 1445,586 1445,362 1414,362 1414,586 1364,586 1364,362 1333,362 1333,613 "/>
  <path id="19" class="fil0" d="M1601 613l0 -251 -30 0 0 251 30 0zm103 0l-71 -132 65 -119 -33 0 -63 120 68 131 34 0z"/>
  <path id="20" class="fil0" d="M1843 488c0,-70 -2,-93 -18,-111 -10,-10 -24,-18 -43,-18 -20,0 -34,8 -43,18 -17,18 -19,41 -19,111 0,69 2,92 19,110 9,11 23,18 43,18 19,0 33,-7 43,-18 16,-18 18,-41 18,-110zm-30 0c0,59 -2,79 -11,91 -4,6 -10,10 -20,10 -10,0 -17,-4 -21,-10 -9,-12 -10,-32 -10,-91 0,-60 1,-80 10,-92 4,-6 11,-10 21,-10 10,0 16,4 20,10 9,12 11,32 11,92z"/>
  <path id="21" class="fil0" d="M1993 613l0 -251 -104 0 0 134c0,85 -17,90 -35,90l-4 0 0 27 9 0c32,0 59,-10 59,-113l0 -111 45 0 0 224 30 0z"/>
  <path id="22" class="fil0" d="M2164 613l-58 -251 -30 0 -58 251 31 0 12 -59 59 0 12 59 32 0zm-50 -86l-47 0 24 -116 23 116z"/>
  <polygon class="fil1" points="519,280 519,29 488,29 488,139 433,139 433,29 402,29 402,280 433,280 433,167 488,167 488,280 "/>
  <path id="1" class="fil1" d="M689 280l-58 -251 -29 0 -59 251 32 0 12 -59 58 0 12 59 32 0zm-50 -86l-47 0 24 -116 23 116z"/>
  <path id="2" class="fil1" d="M823 213c0,-26 -3,-37 -11,-46 -4,-6 -10,-10 -17,-14 7,-3 12,-8 16,-14 8,-10 11,-19 11,-43 0,-23 -2,-40 -16,-54 -9,-10 -24,-16 -42,-16 -18,0 -31,6 -41,16 -11,11 -17,28 -17,49l30 0c0,-11 3,-23 9,-30 4,-4 10,-7 19,-7 9,0 15,2 20,7 7,9 8,19 8,36 0,22 -3,30 -10,37 -4,5 -10,7 -18,7l-20 0 0 26 20 0c8,0 14,2 19,7 7,7 10,16 10,38 0,17 -2,28 -9,36 -5,5 -11,8 -20,8 -9,0 -15,-3 -19,-8 -6,-7 -9,-18 -9,-30l-30 0c0,22 6,40 18,52 9,9 22,13 40,13 18,0 33,-5 43,-16 13,-14 16,-29 16,-54z"/>
  <path id="3" class="fil1" d="M991 280l-59 -251 -29 0 -58 251 31 0 12 -59 59 0 12 59 32 0zm-50 -86l-47 0 24 -116 23 116z"/>
  <path id="4" class="fil1" d="M1131 103c0,-56 -22,-74 -60,-74l-56 0 0 251 30 0 0 -104 26 0c38,0 60,-18 60,-73zm-30 0c0,33 -10,46 -31,46l-25 0 0 -93 25 0c21,0 31,13 31,47z"/>
  <path id="5" class="fil1" d="M1284 207c0,-56 -22,-74 -60,-74l-27 0 0 -77 76 0 0 -27 -106 0 0 251 57 0c38,0 60,-18 60,-73zm-30 0c0,34 -11,46 -31,46l-26 0 0 -92 26 0c20,0 31,12 31,46z"/>
  <path id="6" class="fil1" d="M1447 280l-58 -251 -30 0 -58 251 31 0 12 -59 59 0 12 59 32 0zm-50 -86l-47 0 24 -116 23 116z"/>
  <polygon id="7" class="fil1" points="1568,280 1568,253 1501,253 1501,168 1559,168 1559,141 1501,141 1501,56 1568,56 1568,29 1471,29 1471,280 "/>
  <path id="8" class="fil1" d="M1722 210c0,-22 -3,-39 -16,-51 -4,-4 -9,-8 -15,-9 5,-3 10,-6 14,-10 12,-12 15,-27 15,-45 0,-27 -4,-39 -15,-51 -10,-10 -24,-15 -46,-15l-54 0 0 251 54 0c22,0 36,-4 46,-15 12,-11 17,-25 17,-55zm-31 -2c0,35 -11,45 -34,45l-21 0 0 -90 21 0c23,0 34,13 34,45zm-2 -111c0,28 -10,40 -31,40l-22 0 0 -81 22 0c22,0 31,10 31,41z"/>
  <polygon id="9" class="fil1" points="120,613 120,362 92,362 30,537 30,362 0,362 0,613 28,613 90,439 90,613 "/>
  <polygon id="10" class="fil1" points="282,613 282,362 251,362 251,472 195,472 195,362 165,362 165,613 195,613 195,499 251,499 251,613 "/>
  <polygon id="11" class="fil1" points="426,389 426,362 312,362 312,389 354,389 354,613 384,613 384,389 "/>
  <polygon id="12" class="fil1" points="553,613 553,586 486,586 486,501 544,501 544,473 486,473 486,389 553,389 553,362 456,362 456,613 "/>
  <path id="13" class="fil1" d="M715 613l0 -251 -104 0 0 134c0,85 -17,90 -35,90l-3 0 0 27 8 0c32,0 59,-10 59,-113l0 -111 45 0 0 224 30 0z"/>
  <polygon id="14" class="fil1" points="858,613 858,586 791,586 791,501 848,501 848,473 791,473 791,389 858,389 858,362 761,362 761,613 "/>
  <path id="15" class="fil1" d="M925 613l0 -251 -30 0 0 251 30 0zm103 0l-71 -132 65 -119 -33 0 -63 120 68 131 34 0z"/>
  <polygon id="16" class="fil1" points="1153,389 1153,362 1038,362 1038,389 1081,389 1081,613 1111,613 1111,389 "/>
  <polygon id="17" class="fil1" points="1200,613 1200,578 1165,578 1165,613 "/>
  <polygon id="18" class="fil1" points="1502,613 1502,362 1471,362 1471,586 1421,586 1421,362 1390,362 1390,586 1340,586 1340,362 1309,362 1309,613 "/>
  <path id="19" class="fil1" d="M1577 613l0 -251 -30 0 0 251 30 0zm103 0l-71 -132 65 -119 -33 0 -63 120 68 131 34 0z"/>
  <path id="20" class="fil1" d="M1819 488c0,-70 -2,-93 -18,-111 -10,-10 -24,-18 -43,-18 -20,0 -34,8 -43,18 -17,18 -19,41 -19,111 0,69 2,92 19,110 9,11 23,18 43,18 19,0 33,-7 43,-18 16,-18 18,-41 18,-110zm-30 0c0,59 -2,79 -11,91 -4,6 -11,10 -20,10 -10,0 -17,-4 -21,-10 -9,-12 -10,-32 -10,-91 0,-60 1,-80 10,-92 4,-6 11,-10 21,-10 9,0 16,4 20,10 9,12 11,32 11,92z"/>
  <path id="21" class="fil1" d="M1969 613l0 -251 -104 0 0 134c0,85 -17,90 -35,90l-4 0 0 27 9 0c32,0 59,-10 59,-113l0 -111 45 0 0 224 30 0z"/>
  <path id="22" class="fil1" d="M2140 613l-59 -251 -29 0 -58 251 31 0 12 -59 59 0 12 59 32 0zm-50 -86l-47 0 24 -116 23 116z"/>
  <path class="fil2" d="M1090 798c-42,-1 -85,4 -125,15 -263,71 -393,351 -255,617 87,168 208,351 311,515 16,25 36,70 69,70 33,0 53,-45 69,-70 103,-164 224,-347 311,-515 138,-266 8,-546 -255,-617 -40,-11 -83,-16 -125,-15zm0 228c109,0 197,89 197,197 0,109 -88,198 -197,198 -109,0 -197,-89 -197,-198 0,-108 88,-197 197,-197z"/>
  <g style="clip-path:url(#id0)">
   <g id="_2104719252048">
    <rect class="fil3 str0" x="-213" y="993" width="39.69" height="44.1"/>
   </g>
  </g>
  <path class="fil3" d="M1090 798c-42,-1 -85,4 -125,15 -263,71 -393,351 -255,617 87,168 208,351 311,515 16,25 36,70 69,70 33,0 53,-45 69,-70 103,-164 224,-347 311,-515 138,-266 8,-546 -255,-617 -40,-11 -83,-16 -125,-15zm0 228c109,0 197,89 197,197 0,109 -88,198 -197,198 -109,0 -197,-89 -197,-198 0,-108 88,-197 197,-197z"/>
 </g>
</svg>
